:FULLY-SPECIFIED
:FORCE-ALL-JOINTS-BE-3DOF
:DEGREES
3160
root 0.382844 16.5687 -32.475 1105.72 -6.50086 -25.3165
lfemur -20.181 3.75551 -8.38817
ltibia 38.358 0 0
lfoot -13.9536 9.21938 0
ltoes -36.7123 0 0
rfemur -19.5976 -2.72306 18.3139
rtibia 43.7671 0 0
rfoot -14.8715 -19.3069 0
rtoes -17.4743 0 0
lowerback 7.34992 2.48307 -0.57531
upperback -4.17154 3.43129 1.76517
thorax -8.65444 1.75178 1.6065
lowerneck -5.79258 -2.90076 -6.05143
upperneck 11.6909 -3.94897 5.38561
head 4.88181 -1.88695 2.35696
lclavicle 2.48113e-14 1.03689e-14 0
lhumerus -26.828 -4.46975 89.861
lradius 36.9636 0 0
lwrist -19.4395 0 0
lhand -34.481 390.781 0
lfingers 7.12502 0 0
lthumb -7.64322 -659.392 0
rclavicle 2.48113e-14 1.03689e-14 0
rhumerus -38.4288 12.5819 -84.6042
rradius 45.3343 0 0
rwrist -9.82212 0 0
rhand -15.1691 -393.957 0
rfingers 7.12502 0 0
rthumb 10.9921 296.488 0
3161
root 0.392846 16.5731 -32.4832 1105.46 -6.39833 -25.0511
lfemur -20.1262 3.6874 -8.39509
ltibia 38.3255 0 0
lfoot -13.9912 9.23914 0
ltoes -36.754 0 0
rfemur -19.5776 -2.69231 18.3134
rtibia 43.698 0 0
rfoot -14.8386 -19.3031 0
rtoes -17.4788 0 0
lowerback 7.33465 2.47653 -0.578645
upperback -4.17441 3.42197 1.76557
thorax -8.6488 1.74768 1.61161
lowerneck -5.79762 -2.92475 -6.06792
upperneck 11.6982 -3.98073 5.3941
head 4.88502 -1.90274 2.36081
lclavicle 2.49019e-14 1.04294e-14 0
lhumerus -26.8611 -4.5023 89.863
lradius 36.8482 0 0
lwrist -19.4424 0 0
lhand -34.4686 390.784 0
lfingers 7.12502 0 0
lthumb -7.63131 -659.388 0
rclavicle 2.49019e-14 1.04294e-14 0
rhumerus -38.3836 12.5131 -84.5551
rradius 45.2026 0 0
rwrist -9.66751 0 0
rhand -15.2037 -393.97 0
rfingers 7.12502 0 0
rthumb 10.9589 296.472 0
3162
root 0.402809 16.5774 -32.4914 1105.2 -6.29615 -24.7866
lfemur -20.0716 3.61954 -8.40198
ltibia 38.2933 0 0
lfoot -14.0285 9.25883 0
ltoes -36.7955 0 0
rfemur -19.5577 -2.66167 18.313
rtibia 43.6293 0 0
rfoot -14.8059 -19.2994 0
rtoes -17.4832 0 0
lowerback 7.31944 2.47002 -0.581966
upperback -4.17727 3.41269 1.76597
thorax -8.64317 1.74359 1.61671
lowerneck -5.80265 -2.94865 -6.08435
upperneck 11.7055 -4.01238 5.40256
head 4.8882 -1.91848 2.36465
lclavicle 2.49921e-14 1.04897e-14 0
lhumerus -26.894 -4.53472 89.8651
lradius 36.7333 0 0
lwrist -19.4453 0 0
lhand -34.4563 390.788 0
lfingers 7.12502 0 0
lthumb -7.61944 -659.383 0
rclavicle 2.49921e-14 1.04897e-14 0
rhumerus -38.3386 12.4446 -84.5062
rradius 45.0713 0 0
rwrist -9.5135 0 0
rhand -15.2381 -393.982 0
rfingers 7.12502 0 0
rthumb 10.9258 296.455 0
3163
root 0.412733 16.5818 -32.4995 1104.95 -6.19435 -24.5231
lfemur -20.0172 3.55195 -8.40884
ltibia 38.2611 0 0
lfoot -14.0658 9.27844 0
ltoes -36.8368 0 0
rfemur -19.5379 -2.63114 18.3125
rtibia 43.5608 0 0
rfoot -14.7734 -19.2957 0
rtoes -17.4877 0 0
lowerback 7.30428 2.46354 -0.585273
upperback -4.18011 3.40345 1.76637
thorax -8.63757 1.73952 1.62178
lowerneck -5.80765 -2.97246 -6.10072
upperneck 11.7127 -4.04391 5.41099
head 4.89138 -1.93416 2.36847
lclavicle 2.5082e-14 1.05497e-14 0
lhumerus -26.9269 -4.56698 89.8672
lradius 36.6187 0 0
lwrist -19.4482 0 0
lhand -34.4441 390.791 0
lfingers 7.12502 0 0
lthumb -7.60761 -659.379 0
rclavicle 2.5082e-14 1.05497e-14 0
rhumerus -38.2938 12.3763 -84.4574
rradius 44.9405 0 0
rwrist -9.36009 0 0
rhand -15.2724 -393.995 0
rfingers 7.12502 0 0
rthumb 10.8928 296.44 0
3164
root 0.422617 16.5861 -32.5077 1104.69 -6.09291 -24.2606
lfemur -19.963 3.48461 -8.41567
ltibia 38.229 0 0
lfoot -14.1029 9.29798 0
ltoes -36.878 0 0
rfemur -19.5181 -2.60072 18.312
rtibia 43.4926 0 0
rfoot -14.7409 -19.2921 0
rtoes -17.4922 0 0
lowerback 7.28918 2.45708 -0.588567
upperback -4.18295 3.39424 1.76677
thorax -8.63199 1.73547 1.62683
lowerneck -5.81264 -2.99618 -6.11703
upperneck 11.7199 -4.07533 5.41939
head 4.89455 -1.94978 2.37228
lclavicle 2.51714e-14 1.06095e-14 0
lhumerus -26.9597 -4.5991 89.8694
lradius 36.5046 0 0
lwrist -19.4511 0 0
lhand -34.4319 390.795 0
lfingers 7.12502 0 0
lthumb -7.59584 -659.375 0
rclavicle 2.51714e-14 1.06095e-14 0
rhumerus -38.2493 12.3082 -84.409
rradius 44.8102 0 0
rwrist -9.20729 0 0
rhand -15.3066 -394.008 0
rfingers 7.12502 0 0
rthumb 10.8599 296.424 0
3165
root 0.432463 16.5904 -32.5158 1104.44 -5.99185 -23.999
lfemur -19.909 3.41754 -8.42246
ltibia 38.197 0 0
lfoot -14.1398 9.31743 0
ltoes -36.9191 0 0
rfemur -19.4984 -2.57043 18.3116
rtibia 43.4246 0 0
rfoot -14.7086 -19.2884 0
rtoes -17.4966 0 0
lowerback 7.27413 2.45065 -0.591847
upperback -4.18578 3.38507 1.76717
thorax -8.62644 1.73143 1.63187
lowerneck -5.81761 -3.01981 -6.13327
upperneck 11.7271 -4.10662 5.42775
head 4.89771 -1.96534 2.37607
lclavicle 2.52605e-14 1.0669e-14 0
lhumerus -26.9925 -4.63107 89.8715
lradius 36.3909 0 0
lwrist -19.4539 0 0
lhand -34.4197 390.798 0
lfingers 7.12502 0 0
lthumb -7.58411 -659.371 0
rclavicle 2.52605e-14 1.0669e-14 0
rhumerus -38.2049 12.2404 -84.3607
rradius 44.6804 0 0
rwrist -9.05511 0 0
rhand -15.3407 -394.02 0
rfingers 7.12502 0 0
rthumb 10.8272 296.408 0
3166
root 0.442268 16.5947 -32.5239 1104.18 -5.89116 -23.7385
lfemur -19.8552 3.35073 -8.42923
ltibia 38.1652 0 0
lfoot -14.1766 9.33681 0
ltoes -36.9599 0 0
rfemur -19.4787 -2.54024 18.3111
rtibia 43.3569 0 0
rfoot -14.6764 -19.2848 0
rtoes -17.501 0 0
lowerback 7.25913 2.44424 -0.595113
upperback -4.1886 3.37594 1.76757
thorax -8.6209 1.72741 1.63688
lowerneck -5.82257 -3.04336 -6.14944
upperneck 11.7343 -4.1378 5.43608
head 4.90086 -1.98084 2.37985
lclavicle 2.53493e-14 1.07283e-14 0
lhumerus -27.0252 -4.66288 89.8737
lradius 36.2776 0 0
lwrist -19.4568 0 0
lhand -34.4076 390.802 0
lfingers 7.12502 0 0
lthumb -7.57243 -659.367 0
rclavicle 2.53493e-14 1.07283e-14 0
rhumerus -38.1608 12.1728 -84.3126
rradius 44.5511 0 0
rwrist -8.90354 0 0
rhand -15.3746 -394.033 0
rfingers 7.12502 0 0
rthumb 10.7946 296.392 0
